<svg width="24" height="24" viewBox="0 0 24 24" fill="none" xmlns="http://www.w3.org/2000/svg">
<g id="brightness_4_24px">
<path id="icon/image/brightness_4_24px" fill-rule="evenodd" clip-rule="evenodd" d="M19.9999 8.68999L22.5999 11.29C22.9899 11.68 22.9899 12.32 22.5999 12.71L19.9999 15.31V19C19.9999 19.55 19.5499 20 18.9999 20H15.2999L12.6999 22.6C12.3099 22.99 11.6799 22.99 11.2899 22.6L8.68992 20H4.99992C4.44992 20 3.99992 19.55 3.99992 19V15.3L1.39992 12.7C1.00992 12.31 1.00992 11.68 1.39992 11.29L3.99992 8.68999V4.99999C3.99992 4.44999 4.44992 3.99999 4.99992 3.99999H8.68992L11.2999 1.39999C11.4868 1.21274 11.7404 1.10751 12.0049 1.10751C12.2694 1.10751 12.5231 1.21274 12.7099 1.39999L15.3099 3.99999H18.9999C19.5499 3.99999 19.9999 4.44999 19.9999 4.99999V8.68999ZM14.0399 17.64C16.0699 16.92 17.5799 15.1 17.9199 12.98C17.9699 12.65 17.9899 12.32 17.9999 12C17.9999 11.68 17.9799 11.35 17.9299 11.02C17.5899 8.89999 16.0699 7.07999 14.0499 6.35999C12.8399 5.92999 11.6399 5.90999 10.5499 6.17999C10.1299 6.28999 10.0699 6.83999 10.4199 7.07999C11.9799 8.15999 12.9999 9.95999 12.9999 12C12.9999 14.04 11.9799 15.84 10.4099 16.92C10.0599 17.17 10.1299 17.72 10.5399 17.82C11.6299 18.09 12.8299 18.07 14.0399 17.64Z" fill-opacity="0.6"/>
</g>
</svg>
