<svg width="24" height="24" viewBox="0 0 24 24" fill="none" xmlns="http://www.w3.org/2000/svg">
<g id="brightness_5_24px">
<path id="icon/image/brightness_5_24px" fill-rule="evenodd" clip-rule="evenodd" d="M22.5999 12.71L19.9999 15.31V19C19.9999 19.55 19.5499 20 18.9999 20H15.2999L12.6999 22.6C12.3099 22.99 11.6799 22.99 11.2899 22.6L8.68992 20H4.99992C4.44992 20 3.99992 19.55 3.99992 19V15.3L1.39992 12.7C1.00992 12.31 1.00992 11.68 1.39992 11.29L3.99992 8.68999V4.99999C3.99992 4.44999 4.44992 3.99999 4.99992 3.99999H8.68992L11.2999 1.39999C11.4868 1.21274 11.7404 1.10751 12.0049 1.10751C12.2694 1.10751 12.5231 1.21274 12.7099 1.39999L15.3099 3.99999H18.9999C19.5499 3.99999 19.9999 4.44999 19.9999 4.99999V8.68999L22.5999 11.3C22.9899 11.69 22.9899 12.32 22.5999 12.71ZM5.99992 12C5.99992 15.31 8.68992 18 11.9999 18C15.3099 18 17.9999 15.31 17.9999 12C17.9999 8.68999 15.3099 5.99999 11.9999 5.99999C8.68992 5.99999 5.99992 8.68999 5.99992 12Z" fill-opacity="0.6"/>
</g>
</svg>
