<svg width="24" height="24" viewBox="0 0 24 24" fill="none" xmlns="http://www.w3.org/2000/svg">
<g id="drop_24px">
<path id="icon/content/drop_24px" d="M6.76431 22C4.98003 22 3.52856 20.5485 3.52856 18.7643C3.52856 16.8367 5.57171 14.1787 6.40838 13.1664C6.59328 12.9445 6.93072 12.9445 7.11562 13.1664C7.95692 14.1787 10.0001 16.8367 10.0001 18.7643C10.0001 20.5485 8.54859 22 6.76431 22Z" fill-opacity="0.6"/>
<path id="icon/content/drop_24px_2" d="M14.9667 16C12.1912 16 9.93335 13.7422 9.93335 10.9666C9.93335 7.96816 13.1116 3.83359 14.4131 2.25886C14.7007 1.91371 15.2256 1.91371 15.5132 2.25886C16.8219 3.83359 20.0001 7.96816 20.0001 10.9666C20.0001 13.7422 17.7423 16 14.9667 16Z" fill-opacity="0.6"/>
</g>
</svg>
