<svg width="24" height="24" viewBox="0 0 24 24" fill="none" xmlns="http://www.w3.org/2000/svg">
<g id="text_rotate_vertical_24px">
<path id="icon/action/text_rotate_vertical_24px" fill-rule="evenodd" clip-rule="evenodd" d="M8.2765 17.955L6.48651 19.745C6.2965 19.945 5.97651 19.945 5.78651 19.745L3.99651 17.955C3.67651 17.645 3.89651 17.105 4.34651 17.105H5.13651V5.105C5.13651 4.545 5.58651 4.105 6.13651 4.105C6.68651 4.105 7.13651 4.555 7.13651 5.105V17.105H7.92651C8.3765 17.105 8.59651 17.645 8.2765 17.955ZM15.1365 5.105C14.6765 5.105 14.2665 5.375 14.0865 5.795L10.2065 14.765C9.9365 15.395 10.4065 16.105 11.0965 16.105C11.4865 16.105 11.8365 15.865 11.9865 15.505L12.6465 13.905H17.6465L18.3065 15.505C18.4565 15.865 18.8065 16.105 19.1965 16.105C19.8865 16.105 20.3465 15.395 20.0765 14.765L16.1965 5.795C16.0065 5.375 15.5965 5.105 15.1365 5.105ZM13.2665 12.105L15.1365 7.085L17.0065 12.105H13.2665Z" fill-opacity="0.6"/>
</g>
</svg>
